<?xml version="1.0" encoding="UTF-8"?>
<svg id="Layer_1" xmlns="http://www.w3.org/2000/svg" viewBox="0 0 104.4 104.4">
  <path d="M52.2.216c14.1928,0,27.4116,5.5962,37.2211,15.7577,9.3821,9.7187,14.7629,22.9227,14.7629,36.2263,0,13.3273-5.3531,26.5314-14.6868,36.2265-9.7825,10.1614-23.0283,15.7575-37.2972,15.7575-14.2615,0-27.5073-5.6055-37.2972-15.7838C5.5692,78.6962.216,65.5017.216,52.2.216,38.8696,5.5358,25.675,14.8112,15.9996,24.5686,5.8214,37.8469.216,52.2.216M52.2,0C21.6807,0,0,24.8669,0,52.2s21.9257,52.2,52.2,52.2,52.2-24.7965,52.2-52.2S82.2706,0,52.2,0h0Z" fill="red"/>
</svg>