<?xml version="1.0" encoding="UTF-8"?>
<svg xmlns="http://www.w3.org/2000/svg" width="36.83mm" height="36.83mm" version="1.1" viewBox="0 0 104.4 104.4">
  <!-- Generator: Adobe Illustrator 28.7.1, SVG Export Plug-In . SVG Version: 1.2.0 Build 142)  -->
  <g>
    <g id="Layer_1">
      <path d="M52.2.214c32.541,0,51.986,26.432,51.986,51.986,0,25.001-19.876,51.986-51.986,51.986-19.218,0-31.42-9.085-38.273-16.707C5.212,77.786.214,64.927.214,52.2.214,39.338,5.073,26.479,13.544,16.92,20.298,9.299,32.487.214,52.2.214M52.2,0C18.291,0,0,27.341,0,52.2s19.315,52.2,52.2,52.2,52.2-27.756,52.2-52.2S85.983,0,52.2,0h0Z" fill="red"/>
    </g>
  </g>
</svg>