<?xml version="1.0" encoding="UTF-8"?>
<svg id="Layer_1" xmlns="http://www.w3.org/2000/svg" width="36.83mm" height="36.83mm" viewBox="0 0 104.4 104.4">
  <path d="M52.2.214c14.9237,0,28.4834,5.903,38.1814,16.6216,8.773,9.6963,13.8046,22.5862,13.8046,35.3645,0,25.554-19.4453,51.986-51.986,51.986-19.3734,0-31.5741-9.0951-38.3978-16.7249C5.1667,77.8054.214,64.9532.214,52.2.214,39.4819,5.2034,26.6298,13.903,16.9391,20.7526,9.3092,32.9569.214,52.2.214M52.2,0C19.2499,0,0,27.3899,0,52.2s18.9807,52.2,52.2,52.2,52.2-27.1119,52.2-52.2S84.8401,0,52.2,0h0Z" fill="red"/>
</svg>