<?xml version="1.0" encoding="UTF-8"?>
<svg id="Layer_1" xmlns="http://www.w3.org/2000/svg" width="36.83mm" height="36.83mm" viewBox="0 0 104.39999 104.39999">
  <path d="M52.20001.21399c19.75232,0,32.0386,9.49554,38.86734,17.46127,8.21448,9.58224,13.11865,22.48871,13.11865,34.52475,0,12.13046-4.80865,25.0372-12.86313,34.52551-6.76169,7.96539-19.0379,17.46048-39.12286,17.46048C16.34274,104.186.214,73.78622.214,52.20001.214,40.14517,5.05734,27.25491,13.16995,17.71857,19.96326,9.73306,32.24902.21399,52.20001.21399M52.20001,0C17.28522,0,0,29.47974,0,52.20001s17.03726,52.19998,52.20001,52.19998,52.19998-29.36264,52.19998-52.19998S86.6795,0,52.20001,0h0Z" fill="red"/>
</svg>