<?xml version="1.0" encoding="UTF-8"?>
<svg id="Layer_1" xmlns="http://www.w3.org/2000/svg" width="41.3173mm" height="41.3173mm" viewBox="0 0 117.12 117.12">
  <path d="M58.56.216c21.8221,0,35.5427,10.3277,43.2101,18.9916,9.6178,10.8677,15.1339,25.2111,15.1339,39.3524,0,14.092-5.567,28.4352-15.2737,39.352-7.7036,8.6641-21.4293,18.992-43.0703,18.992-21.8058,0-35.4582-10.0534-43.0714-18.4871C5.7827,87.6648.216,73.1375.216,58.56c0-14.3665,5.7935-28.8931,15.8951-39.8553C27.0978,6.7821,42.1731.216,58.56.216M58.56,0C23.0193,0,0,29.969,0,58.56s21.3555,58.56,58.56,58.56,58.56-31.3185,58.56-58.56S96.1383,0,58.56,0h0Z" fill="red"/>
</svg>