<?xml version="1.0" encoding="UTF-8"?>
<svg id="Layer_1" xmlns="http://www.w3.org/2000/svg" width="41.31733mm" height="41.31733mm" viewBox="0 0 117.12 117.12">
  <path d="M58.56.21399c22.35593,0,36.13861,10.65186,43.76419,19.58765,9.13065,10.69949,14.58182,25.1886,14.58182,38.75836,0,13.53647-5.48499,28.02548-14.67233,38.75812-7.64929,8.93588-21.43555,19.58789-43.67368,19.58789-22.23312,0-36.02158-10.66095-43.67363-19.60437C5.69901,86.56378.214,72.08093.214,58.56.214,44.87827,5.53763,30.39496,14.4547,19.81717,21.99353,10.8743,35.76498.21399,58.56.21399M58.56,0C18.58954,0,0,32.95798,0,58.56s19.74335,58.56,58.56,58.56,58.56-32.91391,58.56-58.56S97.61856,0,58.56,0h0Z" fill="red"/>
</svg>