<?xml version="1.0" encoding="UTF-8"?>
<svg id="Layer_1" xmlns="http://www.w3.org/2000/svg" width="41.3173mm" height="41.3173mm" viewBox="0 0 117.12 117.12">
  <path d="M58.56.214c21.9505,0,35.6854,10.3996,43.3422,19.1238,9.5351,10.8643,15.0038,25.1602,15.0038,39.2222,0,14.0393-5.4917,28.3352-15.0669,39.222-7.6732,8.7243-21.4104,19.124-43.2791,19.124C20.6629,116.906.214,86.8447.214,58.56.214,44.2049,6.0483,29.6684,16.2209,18.6779,27.2415,6.7713,42.2778.214,58.56.214M58.56,0C23.317,0,0,29.9,0,58.56s20.8006,58.56,58.56,58.56,58.56-31.6711,58.56-58.56S96.4881,0,58.56,0h0Z" fill="red"/>
</svg>