<?xml version="1.0" encoding="UTF-8"?>
<svg xmlns="http://www.w3.org/2000/svg" version="1.1" viewBox="0 0 117.12 117.12">
  <!-- Generator: Adobe Illustrator 28.7.1, SVG Export Plug-In . SVG Version: 1.2.0 Build 142)  -->
  <g>
    <g id="Layer_1">
      <path d="M58.56.214c22.356,0,36.139,10.652,43.764,19.588,9.131,10.699,14.582,25.189,14.582,38.758s-5.485,28.025-14.672,38.758c-7.649,8.936-21.436,19.588-43.674,19.588s-36.022-10.661-43.674-19.604C5.699,86.564.214,72.081.214,58.56.214,44.878,5.538,30.395,14.455,19.817,21.994,10.874,35.765.214,58.56.214M58.56,0C18.59,0,0,32.958,0,58.56s19.743,58.56,58.56,58.56,58.56-32.914,58.56-58.56S97.619,0,58.56,0h0Z" fill="red"/>
    </g>
  </g>
</svg>