<?xml version="1.0" encoding="UTF-8"?>
<svg id="Layer_1" xmlns="http://www.w3.org/2000/svg" viewBox="0 0 117.12 117.12">
  <path d="M58.56.216c15.9293,0,30.7653,6.2809,41.775,17.6856,10.5298,10.9077,16.569,25.7271,16.569,40.6584,0,14.9579-6.008,29.7774-16.4835,40.6586-10.9794,11.4046-25.8457,17.6854-41.8605,17.6854-16.0064,0-30.8727-6.2913-41.8604-17.715C6.224,88.2978.216,73.4891.216,58.56.216,43.5987,6.1866,28.7899,16.5968,17.9307,27.548,6.5072,42.4509.216,58.56.216M58.56,0C24.3223,0,0,27.8967,0,58.56s24.597,58.56,58.56,58.56,58.56-27.8176,58.56-58.56S92.2944,0,58.56,0h0Z" fill="red"/>
</svg>