<?xml version="1.0" encoding="UTF-8"?>
<svg id="Layer_1" xmlns="http://www.w3.org/2000/svg" viewBox="0 0 126 126">
  <path d="M63,.216c17.1415,0,33.1066,6.7589,44.9542,19.0316,11.3311,11.7377,17.8298,27.6849,17.8298,43.7524,0,16.0962-6.4652,32.0434-17.7379,43.7527-11.815,12.2725-27.8127,19.0313-45.0461,19.0313-17.2245,0-33.2222-6.7701-45.0461-19.0632C6.6812,95.0009.216,79.0652.216,63,.216,46.9001,6.6409,30.9644,17.8433,19.2789,29.628,6.986,45.665.216,63,.216M63,0C26.1664,0,0,30.0118,0,63s26.462,63,63,63,63-29.9268,63-63S99.2921,0,63,0h0Z" fill="red"/>
</svg>