<?xml version="1.0" encoding="UTF-8"?>
<svg id="Layer_1" xmlns="http://www.w3.org/2000/svg" viewBox="0 0 126 126">
  <path d="M63,.216c15.4706,0,31.0471,6.0622,42.7354,16.6321,12.9286,11.6917,20.0486,28.082,20.0486,46.1519,0,18.0458-7.1533,34.4362-20.142,46.1517-11.7189,10.5701-27.2613,16.6323-42.642,16.6323-15.3885,0-30.9309-6.0541-42.6421-16.6099C7.3692,97.4668.216,81.0685.216,63,.216,24.22,32.8056.216,63,.216M63,0C32.6528,0,0,23.9939,0,63c0,39.5589,32.9022,63,63,63s63-23.5012,63-63S93.3472,0,63,0h0Z" fill="red"/>
</svg>