<?xml version="1.0" encoding="UTF-8"?>
<svg id="Layer_1" xmlns="http://www.w3.org/2000/svg" width="44.45mm" height="44.45mm" viewBox="0 0 126 126">
  <path d="M63,.214c39.301,0,62.786,31.9232,62.786,62.786,0,15.424-6.0572,30.9812-16.6184,42.6826-11.7007,12.9639-28.0966,20.1034-46.1676,20.1034C23.699,125.786.214,93.8628.214,63,.214,47.4337,6.3137,31.8077,16.9492,20.1285,28.6436,7.2864,44.9981.214,63,.214M63,0C23.7759,0,0,32.2918,0,63s23.4629,63,63,63,63-32.7973,63-63S103.1636,0,63,0h0Z" fill="red"/>
</svg>