<?xml version="1.0" encoding="UTF-8"?>
<svg id="Layer_1" xmlns="http://www.w3.org/2000/svg" width="44.45mm" height="44.45mm" viewBox="0 0 126 126">
  <path d="M63,.216c23.5128,0,38.281,11.1311,46.5296,20.4688,10.3299,11.694,16.2544,27.1173,16.2544,42.3152,0,15.1899-5.9327,30.6132-16.2768,42.3151-8.2544,9.3378-23.0234,20.4689-46.5072,20.4689-23.5746,0-38.3032-10.9777-46.5077-20.1868C6.1485,93.9869.216,78.4608.216,63c0-15.2711,6.1321-30.7968,16.8239-42.5959C28.8367,7.3856,45.159.216,63,.216M63,0C24.0129,0,0,33.0243,0,63s22.5493,63,63,63,63-33.7783,63-63S103.5105,0,63,0h0Z" fill="red"/>
</svg>