<?xml version="1.0" encoding="UTF-8"?>
<svg id="Layer_1" xmlns="http://www.w3.org/2000/svg" viewBox="0 0 164.4651 195.274">
  <path d="M140.3568.216c1.3734,1.8588,23.8923,32.9834,23.8923,71.7711,0,23.0456-6.537,48.0819-17.935,68.6895-14.438,26.1039-36.3743,44.863-63.4375,54.2493-.2528.0876-.4934.1321-.7152.1321-.3433,0-.5254-.1088-.5255-.1088h0l-.0227-.0149-.0256-.0087c-27.085-9.2679-49.0322-27.9941-63.4692-54.1541C6.7412,120.1557.216,95.0848.216,71.9871.216,33.1994,22.7349,2.0748,24.1083.216h116.2485M140.4653,0H23.9999S0,31.6427,0,71.9871s20.639,102.3113,81.5177,123.1428c0,0,.2202.144.6437.144.2119,0,.4745-.036.786-.144,60.7916-21.0842,81.5177-82.7984,81.5177-123.1428S140.4653,0,140.4653,0h0Z" fill="red"/>
</svg>